<svg xmlns="http://www.w3.org/2000/svg" viewBox="0 0 129.17 129.12"><defs><style>.cls-1{fill:#fefefd;}.cls-2{fill:#9c9175;}.cls-3{fill:#fee280;}.cls-4{fill:#cebe99;}.cls-5{fill:#f7e5a5;}.cls-6{fill:#feac04;}</style></defs><title>Asset 12</title><g id="Layer_2" data-name="Layer 2"><g id="icons"><g id="light_bulb"><path class="cls-1" d="M58.09,129.07c-18.32,0-36.63,0-54.95.05-2.36,0-3.13-.35-3.13-3Q.18,64.69,0,3.25C0,.34.76,0,3.4,0Q64.59.15,125.78,0c2.63,0,3.4.35,3.39,3.25q-.18,61.44,0,122.88c0,2.64-.77,3-3.13,3-18.65-.09-37.3-.05-55.94-.05,1.91-2,4.62-3.29,5.83-6,3-.22,6-.41,7.43-3.73,2-.17,4.12-.11,4.71-2.67a3.68,3.68,0,0,0-2.19-4.47l.57-5.77c3.76-1.8,2.52-4.47,1.23-7.14.82-2.69,1.68-5.37,1.5-8.24a7.86,7.86,0,0,0,.11-.83C90.94,82.35,95.7,76.1,100,69.6c4.82-7.28,9.18-14.95,8.9-23.93C108.31,26.61,99.07,12.89,81.71,5A44.08,44.08,0,0,0,33.52,13.3C19.39,26.84,13.44,47.86,26.71,67.56c4.79,7.11,10.19,14,12.18,22.65.11.36.21.72.31,1.08-.8,2.72-2.6,5.55.9,7.78.26,1.93,1.4,3.74.77,5.79-2.34.22-3.69,1.57-3.54,3.85.13,2,1.66,3,3.63,3.41a12.75,12.75,0,0,1,2.23.88c.49,7.28,2.31,9.3,9.06,10.06C53.46,125.78,56.17,127,58.09,129.07Z"/><path class="cls-2" d="M58.09,129.07c-1.92-2-4.63-3.29-5.84-6H75.92c-1.21,2.72-3.92,4-5.83,6Z"/><path class="cls-3" d="M38.89,90.21c-2-8.66-7.39-15.54-12.18-22.65-13.27-19.7-7.32-40.72,6.81-54.26A44.08,44.08,0,0,1,81.71,5c17.36,7.91,26.6,21.63,27.19,40.69.28,9-4.08,16.65-8.9,23.93-4.3,6.5-9.06,12.75-10.72,20.61l-20.2-.14c-1.44-7.43,1.12-13.2,7.15-17.63a29.16,29.16,0,0,0,3.53-3.5c2.29-2.4,2.73-4.95.19-7.4s-4.93-1.33-7.07.57a78.77,78.77,0,0,0-6.35,6.31c-1.75,1.94-3.14,1.94-4.88,0a80.56,80.56,0,0,0-6.36-6.31c-2.13-1.9-4.59-3-7.07-.57s-2.09,5,.2,7.4A27.78,27.78,0,0,0,52,72.44c6,4.43,8.58,10.2,7.14,17.63Z"/><path class="cls-2" d="M87.67,99.28c1.29,2.67,2.53,5.34-1.23,7.14L40.1,99.07c-3.5-2.23-1.7-5.06-.9-7.78l6.68.08a2.11,2.11,0,0,0,1.7,1.6Z"/><path class="cls-2" d="M85.87,112.19a3.68,3.68,0,0,1,2.19,4.47c-.59,2.56-2.73,2.5-4.71,2.67-13.39-2.07-26.64-5-40.16-6.33a12.75,12.75,0,0,0-2.23-.88c-2-.38-3.5-1.38-3.63-3.41-.15-2.28,1.2-3.63,3.54-3.85Z"/><path class="cls-4" d="M43.19,113c13.52,1.28,26.77,4.26,40.16,6.33-1.43,3.32-4.43,3.51-7.43,3.73H52.25C45.5,122.3,43.68,120.28,43.19,113Z"/><path class="cls-4" d="M85.87,112.19l-45-7.33c.63-2-.51-3.86-.77-5.79l46.34,7.35Z"/><path class="cls-4" d="M87.67,99.28,47.58,93a2.08,2.08,0,0,1-1.69-1.6l13.6-.47h9.19L89.17,91C89.35,93.91,88.49,96.59,87.67,99.28Z"/><path class="cls-5" d="M59.49,90.9l-13.6.47-6.69-.08c-.1-.36-.2-.72-.31-1.08l20.2-.14A3.73,3.73,0,0,1,59.49,90.9Z"/><path class="cls-5" d="M89.17,91,68.68,90.9a4.88,4.88,0,0,1,.4-.83l20.2.14A7.86,7.86,0,0,1,89.17,91Z"/><path class="cls-6" d="M69.08,90.07a4.88,4.88,0,0,0-.4.83H59.49a3.73,3.73,0,0,0-.4-.83C60.53,82.64,58,76.87,52,72.44a27.78,27.78,0,0,1-3.53-3.5c-2.29-2.4-2.74-4.95-.2-7.4s4.94-1.33,7.07.57a80.56,80.56,0,0,1,6.36,6.31c1.74,1.94,3.13,1.94,4.88,0a78.77,78.77,0,0,1,6.35-6.31c2.14-1.9,4.59-3,7.07-.57s2.1,5-.19,7.4a29.16,29.16,0,0,1-3.53,3.5C70.2,76.87,67.64,82.64,69.08,90.07Z"/></g></g></g></svg>