<svg id="icon_dialog" xmlns="http://www.w3.org/2000/svg" width="21" height="16" viewBox="0 0 21 16"><defs><style>.cls-1{fill:#42526e;}</style></defs><title>label_icon</title><path class="cls-1" d="M20.66,10.17l-.11.12-5.21,5.17a1.76,1.76,0,0,1-2.43.1l1.88-6.11Z"/><path class="cls-1" d="M13,9.23l-1.52,4.93C9.74,12.44,8,10.71,6.26,9a4.12,4.12,0,0,1-.5-.62Z"/><path class="cls-1" d="M20.55,7.72C18.66,5.81,16.74,3.91,14.87,2A5.18,5.18,0,0,0,11.72.09,25.94,25.94,0,0,0,8.79,0s-.08,0-.08,0H6.22A1.15,1.15,0,0,0,5,1.19C5,2.79,5,4.38,5,6A4.58,4.58,0,0,0,5,6.5L21,8.44A1.68,1.68,0,0,0,20.55,7.72ZM8.92,5.9a2,2,0,1,1,2-2A2,2,0,0,1,8.92,5.9Z"/></svg>